<?xml version="1.0" standalone="no"?>
<!DOCTYPE svg PUBLIC "-//W3C//DTD SVG 20010904//EN"
 "http://www.w3.org/TR/2001/REC-SVG-20010904/DTD/svg10.dtd">
<svg version="1.0" xmlns="http://www.w3.org/2000/svg"
 width="512.000000pt" height="512.000000pt" viewBox="0 0 512.000000 512.000000"
 preserveAspectRatio="xMidYMid meet">
<metadata>
Created by potrace 1.11, written by Peter Selinger 2001-2013
</metadata>
<g transform="translate(0.000000,512.000000) scale(0.100000,-0.100000)"
fill="#000000" stroke="none">
<path d="M2479 5005 c-2 -2 -33 -6 -69 -9 -437 -40 -898 -230 -1265 -520 -101
-80 -272 -245 -357 -346 l-47 -55 -258 -1 c-243 -1 -261 -2 -308 -23 -59 -26
-118 -80 -148 -136 -20 -36 -22 -59 -25 -212 -4 -201 6 -254 64 -321 42 -50
115 -90 179 -99 l45 -6 -25 -25 c-36 -36 -38 -89 -5 -134 11 -15 18 -33 15
-40 -9 -25 -32 -168 -42 -263 -10 -87 -10 -406 -1 -500 80 -788 534 -1489
1222 -1884 49 -28 90 -51 92 -51 1 0 46 -21 100 -46 54 -25 154 -65 223 -88
129 -44 289 -86 391 -102 19 -3 46 -7 60 -10 118 -20 496 -26 615 -10 111 14
120 16 145 21 14 3 41 8 60 11 102 18 317 79 387 110 17 8 35 14 39 14 12 0
97 38 225 102 164 81 305 175 474 318 60 50 223 217 281 286 87 105 91 110
121 156 15 24 30 45 33 48 17 16 124 200 168 290 65 133 95 207 138 345 30 93
43 144 69 265 5 25 25 160 34 235 20 159 3 511 -34 700 -55 289 -167 574 -323
825 -36 58 -68 107 -71 110 -3 3 -22 28 -40 55 -19 28 -37 52 -41 55 -3 3 -37
43 -77 90 -293 346 -721 623 -1158 749 -139 40 -250 64 -350 77 -27 3 -61 8
-75 10 -31 6 -456 15 -461 9z"/>
</g>
</svg>
